<svg width="29" height="35" viewBox="0 0 29 35" fill="none" xmlns="http://www.w3.org/2000/svg">
<path d="M5.19398 32.3333C4.08941 32.3333 3.19398 31.4379 3.19398 30.3333V27.5121C3.19398 26.9057 3.46904 26.3321 3.94182 25.9525L14.5687 17.42C15.323 16.8131 15.9682 16.2447 16.5042 15.7148C17.0501 15.1753 17.4669 14.6214 17.7548 14.053C18.0525 13.4846 18.2014 12.8536 18.2014 12.1599C18.2014 11.3989 18.0327 10.7486 17.6952 10.2091C17.3677 9.66957 16.9111 9.25531 16.3255 8.96629C15.7399 8.66764 15.065 8.51831 14.3007 8.51831C13.5364 8.51831 12.8615 8.66764 12.2759 8.96629C11.7002 9.26494 11.2535 9.70328 10.9359 10.2813C10.9062 10.3354 10.8779 10.3905 10.851 10.4468C10.3741 11.4431 9.56406 12.3911 8.45949 12.3911H4.59845C3.49388 12.3911 2.57427 11.4888 2.76004 10.3999C2.97437 9.14376 3.40189 8.01559 4.04262 7.01542C5.0054 5.51253 6.3652 4.35647 8.12202 3.54722C9.87885 2.73797 11.9384 2.33334 14.3007 2.33334C16.7424 2.33334 18.8565 2.71388 20.6431 3.47496C22.4396 4.22641 23.8243 5.28614 24.797 6.65415C25.7796 8.02217 26.2709 9.62621 26.2709 11.4663C26.2709 12.6031 26.0277 13.7351 25.5414 14.8622C25.055 15.9798 24.1816 17.2177 22.921 18.5761C21.6605 19.9345 19.8689 21.553 17.5463 23.4316L14.7313 25.7085C14.7038 25.7308 14.6878 25.7643 14.6878 25.7998C14.6878 25.8646 14.7403 25.9172 14.8052 25.9172H24.5985C25.703 25.9172 26.5985 26.8126 26.5985 27.9172V30.3333C26.5985 31.4379 25.703 32.3333 24.5985 32.3333H5.19398Z" fill="#3B64B7"/>
<path d="M14.3006 1.33334C16.8405 1.33334 19.0917 1.72852 21.0281 2.55209C22.9672 3.36315 24.5121 4.52939 25.6092 6.07065L25.8113 6.36557C26.7909 7.85241 27.2713 9.56403 27.2713 11.4662C27.2713 12.7497 26.9957 14.0161 26.4598 15.2581L26.4588 15.2611L25.5418 14.8626L26.4578 15.2611C25.9095 16.5211 24.9556 17.8536 23.6541 19.2562C22.3478 20.6639 20.5157 22.3166 18.1756 24.2093L17.2996 24.9173H24.5984C26.2553 24.9173 27.5984 26.2605 27.5984 27.9173V30.3333C27.5984 31.9902 26.2553 33.3333 24.5984 33.3333H5.19415C3.5373 33.3333 2.19415 31.9902 2.19415 30.3333V27.5121C2.19415 26.6026 2.60705 25.7426 3.31622 25.1732L13.9422 16.64C14.6767 16.049 15.2956 15.5034 15.8016 15.0033C16.2859 14.5246 16.6328 14.0557 16.8631 13.6009L16.869 13.5892L16.9451 13.431C17.1125 13.0564 17.201 12.6368 17.201 12.1595C17.2009 11.5492 17.0674 11.0912 16.8475 10.7396L16.8406 10.7279C16.6153 10.3568 16.3039 10.0706 15.8826 9.86264L15.8709 9.85678C15.4473 9.64083 14.9325 9.51791 14.3006 9.51791C13.6716 9.51793 13.1586 9.63971 12.7361 9.85385C12.3395 10.0597 12.0363 10.3555 11.8123 10.763C11.7917 10.8005 11.7717 10.8388 11.7527 10.8783C11.2425 11.9442 10.1826 13.3908 8.45978 13.391H4.59845C3.00262 13.391 1.46381 12.0514 1.77423 10.2318C2.00944 8.85323 2.48282 7.59698 3.20099 6.47592C4.27547 4.79877 5.78876 3.52119 7.70392 2.63901C9.6176 1.75755 11.8253 1.33335 14.3006 1.33334Z" stroke="white" stroke-opacity="0.4" stroke-width="2" stroke-linejoin="round"/>
</svg>
