<svg width="62" height="36" viewBox="0 0 62 36" fill="none" xmlns="http://www.w3.org/2000/svg">
<path d="M40.2468 8.47239L49.1335 8.56125L42.4685 15.2273L45.8455 24.5583L37.7585 20.6482L25.3279 29.0905L30.116 17.0935L16.7078 8.56125L33.7595 8.47239L36.781 0.563206L40.2468 8.47239ZM35.5369 11.9392L30.2048 12.2947L34.3816 15.0495L32.5154 20.2038L36.8699 17.0046L40.6912 18.8708L39.0916 14.6052L42.0242 11.5837L38.114 11.7614L36.8699 8.38352L35.5369 11.9392Z" fill="#82E024"/>
<g filter="url(#filter0_f_1_2217)">
<path d="M28.9602 12.3831L29.4935 9.27258L23.1836 10.339L22.4727 12.0276L23.9835 13.1829L24.0723 12.2942L28.9602 12.3831Z" fill="#181A20"/>
</g>
<path d="M10.0535 13.5188C10.1005 13.0013 9.97506 12.5962 9.67711 12.3035C9.37917 12.0056 8.87737 11.8566 8.17171 11.8566C7.72218 11.8566 7.34583 11.9089 7.04266 12.0134C6.74472 12.118 6.51211 12.2617 6.34484 12.4447C6.1828 12.6276 6.08087 12.8393 6.03906 13.0797C5.99201 13.2679 5.99463 13.4404 6.0469 13.5972C6.1044 13.7488 6.21155 13.8873 6.36836 14.0128C6.5304 14.1382 6.7421 14.2506 7.00346 14.3499C7.27004 14.4492 7.58628 14.5381 7.95217 14.6165L9.20667 14.8988C10.0639 15.0869 10.7826 15.3352 11.3628 15.6436C11.9483 15.9468 12.4083 16.3075 12.7428 16.7256C13.0773 17.1438 13.2969 17.6116 13.4014 18.1291C13.5112 18.6466 13.5138 19.2111 13.4093 19.8227C13.2315 20.8786 12.8212 21.7724 12.1783 22.5042C11.5353 23.236 10.6964 23.7927 9.66143 24.1742C8.62647 24.5558 7.42946 24.7466 6.07042 24.7466C4.68002 24.7466 3.49869 24.5401 2.52645 24.1272C1.55944 23.709 0.859013 23.0713 0.425165 22.2141C-0.00345665 21.3516 -0.107998 20.2513 0.111539 18.9132H4.25139C4.18867 19.4045 4.24094 19.8175 4.40821 20.152C4.57547 20.4865 4.84467 20.74 5.21579 20.9125C5.58692 21.085 6.04951 21.1713 6.60358 21.1713C7.07402 21.1713 7.47651 21.1138 7.81104 20.9988C8.14558 20.8838 8.40954 20.7244 8.60295 20.5205C8.79635 20.3166 8.91396 20.084 8.95577 19.8227C8.99759 19.5822 8.95577 19.3679 8.83032 19.1798C8.70487 18.9916 8.4775 18.8217 8.14819 18.6701C7.81888 18.5185 7.36674 18.38 6.79176 18.2546L5.25499 17.9096C3.89072 17.5959 2.86099 17.0785 2.16579 16.3571C1.47058 15.6358 1.22491 14.6479 1.42877 13.3934C1.59603 12.3689 2.01681 11.475 2.69111 10.7119C3.37063 9.94349 4.2331 9.3476 5.27852 8.9242C6.32916 8.49558 7.49219 8.28127 8.7676 8.28127C10.0639 8.28127 11.1485 8.4982 12.0215 8.93205C12.8996 9.36589 13.5295 9.97485 13.9111 10.7589C14.2979 11.543 14.4024 12.4629 14.2247 13.5188H10.0535Z" fill="url(#paint0_linear_1_2217)"/>
<path d="M14.8104 12.0134L15.4063 8.50081H29.3626L28.7667 12.0134H23.9369L21.8669 24.5584H17.5703L19.6402 12.0134H14.8104Z" fill="url(#paint1_linear_1_2217)"/>
<path d="M46.7632 24.5584L49.429 8.50081H56.3602C57.5519 8.50081 58.5582 8.71774 59.3788 9.15158C60.1995 9.58543 60.7901 10.2101 61.1508 11.0255C61.5115 11.8409 61.5977 12.8184 61.4095 13.9579C61.2214 15.1079 60.8058 16.0775 60.1629 16.8668C59.5252 17.6508 58.7124 18.2467 57.7244 18.6544C56.7417 19.0569 55.6388 19.2582 54.4157 19.2582H50.2758L50.8404 15.871H54.1021C54.6143 15.871 55.0638 15.8083 55.4507 15.6828C55.8375 15.5522 56.1511 15.3483 56.3915 15.0713C56.632 14.789 56.7888 14.4179 56.862 13.9579C56.9352 13.4979 56.8986 13.1242 56.7522 12.8367C56.6058 12.544 56.3628 12.3297 56.023 12.1937C55.6833 12.0526 55.2625 11.9821 54.7607 11.9821H53.2239L51.1226 24.5584H46.7632ZM57.3951 17.1882L60.1864 24.5584H55.4507L52.7535 17.1882H57.3951Z" fill="url(#paint2_linear_1_2217)"/>
<path d="M2.17904 29.923V35.553H1.32959V29.923H2.17904Z" fill="white" fill-opacity="0.4"/>
<path d="M10.9019 29.923V35.553H10.1212L7.25944 31.4239H7.20721V35.553H6.35777V29.923H7.14398L10.0085 34.0575H10.0607V29.923H10.9019Z" fill="white" fill-opacity="0.4"/>
<path d="M16.9053 35.553H15.0827V29.923H16.963C17.5147 29.923 17.9884 30.0357 18.3843 30.2611C18.7801 30.4847 19.0834 30.8063 19.2942 31.226C19.5068 31.6439 19.6131 32.1451 19.6131 32.7297C19.6131 33.3162 19.5059 33.8202 19.2914 34.2417C19.0788 34.6632 18.771 34.9876 18.3678 35.2148C17.9646 35.4403 17.4771 35.553 16.9053 35.553ZM15.9321 34.8107H16.8586C17.2874 34.8107 17.6439 34.7301 17.9279 34.5688C18.212 34.4057 18.4246 34.1702 18.5657 33.8623C18.7068 33.5526 18.7774 33.1751 18.7774 32.7297C18.7774 32.2881 18.7068 31.9133 18.5657 31.6054C18.4264 31.2975 18.2184 31.0638 17.9417 30.9044C17.6649 30.7449 17.3213 30.6652 16.9108 30.6652H15.9321V34.8107Z" fill="white" fill-opacity="0.4"/>
<path d="M27.2315 29.923H28.0837V33.6259C28.0837 34.0199 27.9912 34.3691 27.8061 34.6733C27.621 34.9757 27.3607 35.2139 27.0253 35.388C26.69 35.5603 26.2968 35.6464 25.846 35.6464C25.397 35.6464 25.0048 35.5603 24.6694 35.388C24.334 35.2139 24.0738 34.9757 23.8887 34.6733C23.7036 34.3691 23.611 34.0199 23.611 33.6259V29.923H24.4605V33.5572C24.4605 33.8119 24.5164 34.0383 24.6282 34.2362C24.7418 34.4341 24.9022 34.5899 25.1093 34.7035C25.3164 34.8153 25.5619 34.8712 25.846 34.8712C26.1319 34.8712 26.3784 34.8153 26.5855 34.7035C26.7944 34.5899 26.9539 34.4341 27.0638 34.2362C27.1756 34.0383 27.2315 33.8119 27.2315 33.5572V29.923Z" fill="white" fill-opacity="0.4"/>
<path d="M35.331 31.402C35.3017 31.1417 35.1807 30.9401 34.9682 30.7972C34.7556 30.6524 34.488 30.58 34.1654 30.58C33.9345 30.58 33.7348 30.6167 33.5662 30.69C33.3975 30.7614 33.2665 30.8604 33.173 30.9869C33.0814 31.1115 33.0356 31.2535 33.0356 31.4129C33.0356 31.5467 33.0667 31.6622 33.1291 31.7593C33.1932 31.8565 33.2766 31.938 33.3792 32.004C33.4837 32.0681 33.5955 32.1222 33.7146 32.1662C33.8337 32.2083 33.9483 32.2432 34.0582 32.2706L34.608 32.4136C34.7876 32.4576 34.9718 32.5171 35.1606 32.5923C35.3493 32.6674 35.5244 32.7664 35.6856 32.8892C35.8469 33.012 35.977 33.1641 36.076 33.3455C36.1768 33.5269 36.2272 33.7441 36.2272 33.997C36.2272 34.3159 36.1447 34.5991 35.9798 34.8465C35.8167 35.0939 35.5794 35.2891 35.2678 35.432C34.9581 35.575 34.5833 35.6464 34.1434 35.6464C33.7219 35.6464 33.3572 35.5795 33.0493 35.4458C32.7414 35.312 32.5005 35.1223 32.3263 34.8767C32.1522 34.6293 32.056 34.3361 32.0377 33.997H32.8899C32.9064 34.2005 32.9724 34.37 33.0878 34.5056C33.2051 34.6394 33.3545 34.7393 33.5359 34.8052C33.7192 34.8694 33.9199 34.9015 34.138 34.9015C34.378 34.9015 34.5915 34.8639 34.7785 34.7887C34.9672 34.7118 35.1157 34.6055 35.2238 34.4699C35.3319 34.3324 35.386 34.172 35.386 33.9888C35.386 33.822 35.3384 33.6855 35.2431 33.5792C35.1496 33.4729 35.0222 33.3849 34.8609 33.3153C34.7015 33.2456 34.521 33.1842 34.3194 33.1311L33.6541 32.9497C33.2033 32.8269 32.8459 32.6463 32.582 32.4081C32.3199 32.1698 32.1889 31.8546 32.1889 31.4624C32.1889 31.138 32.2769 30.8549 32.4528 30.613C32.6287 30.3711 32.867 30.1832 33.1675 30.0494C33.4681 29.9138 33.8072 29.846 34.1847 29.846C34.5659 29.846 34.9022 29.9129 35.1936 30.0467C35.4868 30.1805 35.7177 30.3647 35.8863 30.5992C36.0549 30.832 36.1429 31.0996 36.1502 31.402H35.331Z" fill="white" fill-opacity="0.4"/>
<path d="M39.9063 30.6542V29.923H44.2635V30.6542H42.5069V35.553H41.6602V30.6542H39.9063Z" fill="white" fill-opacity="0.4"/>
<path d="M48.168 35.553V29.923H50.1748C50.611 29.923 50.9729 29.9981 51.2607 30.1484C51.5502 30.2987 51.7665 30.5067 51.9094 30.7724C52.0524 31.0363 52.1238 31.3415 52.1238 31.6879C52.1238 32.0324 52.0515 32.3357 51.9067 32.5978C51.7637 32.858 51.5475 33.0605 51.2579 33.2053C50.9702 33.3501 50.6082 33.4225 50.172 33.4225H48.6518V32.6912H50.0951C50.37 32.6912 50.5936 32.6518 50.7658 32.573C50.9399 32.4942 51.0673 32.3797 51.1479 32.2294C51.2286 32.0791 51.2689 31.8986 51.2689 31.6879C51.2689 31.4753 51.2277 31.2911 51.1452 31.1353C51.0646 30.9795 50.9372 30.8604 50.7631 30.7779C50.5908 30.6936 50.3645 30.6515 50.0841 30.6515H49.0175V35.553H48.168ZM50.9473 33.0129L52.3383 35.553H51.3706L50.0071 33.0129H50.9473Z" fill="white" fill-opacity="0.4"/>
<path d="M55.4607 29.923H56.4256L57.8963 32.4823H57.9568L59.4275 29.923H60.3924L58.3499 33.3428V35.553H57.5032V33.3428L55.4607 29.923Z" fill="white" fill-opacity="0.4"/>
<defs>
<filter id="filter0_f_1_2217" x="18.4727" y="5.27258" width="15.0209" height="11.9103" filterUnits="userSpaceOnUse" color-interpolation-filters="sRGB">
<feFlood flood-opacity="0" result="BackgroundImageFix"/>
<feBlend mode="normal" in="SourceGraphic" in2="BackgroundImageFix" result="shape"/>
<feGaussianBlur stdDeviation="2" result="effect1_foregroundBlur_1_2217"/>
</filter>
<linearGradient id="paint0_linear_1_2217" x1="30.6518" y1="8.5616" x2="30.6518" y2="24.5584" gradientUnits="userSpaceOnUse">
<stop stop-color="white"/>
<stop offset="1" stop-color="#929395"/>
</linearGradient>
<linearGradient id="paint1_linear_1_2217" x1="30.6518" y1="8.5616" x2="30.6518" y2="24.5584" gradientUnits="userSpaceOnUse">
<stop stop-color="white"/>
<stop offset="1" stop-color="#929395"/>
</linearGradient>
<linearGradient id="paint2_linear_1_2217" x1="30.6518" y1="8.5616" x2="30.6518" y2="24.5584" gradientUnits="userSpaceOnUse">
<stop stop-color="white"/>
<stop offset="1" stop-color="#929395"/>
</linearGradient>
</defs>
</svg>
