<svg width="53" height="59" viewBox="0 0 53 59" fill="none" xmlns="http://www.w3.org/2000/svg">
<g filter="url(#filter0_d_2002_352)">
<path d="M26.8234 42.7803C23.1245 42.7671 19.9294 41.912 17.2381 40.215C14.5469 38.518 12.472 36.072 11.0137 32.8769C9.55538 29.6818 8.83284 25.8504 8.8461 21.3826C8.85935 16.9015 9.58852 13.0966 11.0336 9.96782C12.4919 6.83903 14.5601 4.4593 17.2381 2.82862C19.9294 1.19794 23.1245 0.382595 26.8234 0.382595C30.5222 0.382595 33.7173 1.20456 36.4086 2.84851C39.0999 4.47919 41.1747 6.85892 42.633 9.98771C44.0914 13.1165 44.8139 16.9148 44.8006 21.3826C44.8006 25.8769 44.0715 29.7216 42.6131 32.9167C41.1548 36.1118 39.08 38.5578 36.3887 40.2548C33.7107 41.9385 30.5222 42.7803 26.8234 42.7803ZM26.8234 33.7917C28.7325 33.7917 30.2969 32.7974 31.5166 30.8087C32.7495 28.8068 33.3594 25.6648 33.3461 21.3826C33.3461 18.5852 33.0677 16.2983 32.5109 14.5218C31.9541 12.7453 31.1851 11.4328 30.2041 10.5843C29.223 9.72256 28.0961 9.29169 26.8234 9.29169C24.9143 9.29169 23.3565 10.2595 22.1501 12.1951C20.9436 14.1307 20.3272 17.1932 20.3006 21.3826C20.2874 24.233 20.5592 26.5796 21.116 28.4224C21.6728 30.2519 22.4417 31.6042 23.4228 32.4792C24.4171 33.3542 25.5506 33.7917 26.8234 33.7917Z" fill="#FFEB7E"/>
</g>
<defs>
<filter id="filter0_d_2002_352" x="0.826233" y="0.382568" width="51.9943" height="58.3978" filterUnits="userSpaceOnUse" color-interpolation-filters="sRGB">
<feFlood flood-opacity="0" result="BackgroundImageFix"/>
<feColorMatrix in="SourceAlpha" type="matrix" values="0 0 0 0 0 0 0 0 0 0 0 0 0 0 0 0 0 0 127 0" result="hardAlpha"/>
<feOffset dy="8"/>
<feGaussianBlur stdDeviation="4"/>
<feComposite in2="hardAlpha" operator="out"/>
<feColorMatrix type="matrix" values="0 0 0 0 0.0951164 0 0 0 0 0.102085 0 0 0 0 0.126477 0 0 0 0.4 0"/>
<feBlend mode="normal" in2="BackgroundImageFix" result="effect1_dropShadow_2002_352"/>
<feBlend mode="normal" in="SourceGraphic" in2="effect1_dropShadow_2002_352" result="shape"/>
</filter>
</defs>
</svg>
