<svg width="24" height="37" viewBox="0 0 24 37" fill="none" xmlns="http://www.w3.org/2000/svg">
<path d="M10.9456 36.6364V0.272725H13.2751V36.6364H10.9456ZM16.5564 12.6307C16.4617 11.589 16.0403 10.7794 15.2922 10.2017C14.5535 9.61458 13.4976 9.32102 12.1245 9.32102C11.2154 9.32102 10.4579 9.43939 9.85181 9.67614C9.24575 9.91288 8.7912 10.2396 8.48817 10.6562C8.18514 11.0634 8.02889 11.5322 8.01942 12.0625C8.00048 12.4981 8.08571 12.8816 8.27511 13.2131C8.47397 13.5445 8.75806 13.8381 9.12738 14.0938C9.50617 14.34 9.96071 14.5578 10.491 14.7472C11.0213 14.9366 11.6179 15.1023 12.2808 15.2443L14.7808 15.8125C16.2202 16.125 17.4891 16.5417 18.5876 17.0625C19.6956 17.5833 20.6236 18.2036 21.3717 18.9233C22.1293 19.643 22.7022 20.4716 23.0904 21.4091C23.4787 22.3466 23.6776 23.3977 23.687 24.5625C23.6776 26.3996 23.2136 27.9763 22.295 29.2926C21.3764 30.6089 20.0554 31.6174 18.3319 32.3182C16.6179 33.0189 14.5488 33.3693 12.1245 33.3693C9.69082 33.3693 7.56961 33.0047 5.7609 32.2756C3.95219 31.5464 2.54594 30.4384 1.54215 28.9517C0.538362 27.465 0.022264 25.5852 -0.00614509 23.3125H6.72681C6.78363 24.25 7.03457 25.0312 7.47965 25.6562C7.92473 26.2812 8.53552 26.7547 9.31204 27.0767C10.098 27.3987 11.0071 27.5597 12.0393 27.5597C12.9863 27.5597 13.7912 27.4318 14.4541 27.1761C15.1264 26.9205 15.6425 26.5653 16.0024 26.1108C16.3622 25.6562 16.5469 25.1354 16.5564 24.5483C16.5469 23.9991 16.3764 23.5303 16.045 23.142C15.7136 22.7443 15.2022 22.4034 14.5109 22.1193C13.8291 21.8258 12.9579 21.5559 11.8973 21.3097L8.85749 20.5994C6.33855 20.0218 4.35465 19.089 2.90579 17.8011C1.45692 16.5038 0.737226 14.7519 0.746696 12.5455C0.737226 10.7462 1.22018 9.16951 2.19556 7.81534C3.17094 6.46117 4.52037 5.4053 6.24386 4.64773C7.96734 3.89015 9.9323 3.51136 12.1387 3.51136C14.3925 3.51136 16.348 3.89489 18.0052 4.66193C19.6719 5.41951 20.9645 6.48485 21.8831 7.85795C22.8016 9.23106 23.2704 10.822 23.2893 12.6307H16.5564Z" fill="white" fill-opacity="0.4"/>
</svg>
