<svg width="48" height="49" viewBox="0 0 48 49" fill="none" xmlns="http://www.w3.org/2000/svg">
<g clip-path="url(#clip0_2002_259)">
<path d="M47.7489 14.4778L34.1889 0.91783C34.0281 0.757073 33.8102 0.666736 33.5829 0.666687H14.4171C14.1898 0.666736 13.9719 0.757073 13.8111 0.91783L0.251143 14.4778C0.0903865 14.6385 4.85463e-05 14.8565 0 15.0838V34.2495C4.85463e-05 34.4769 0.0903865 34.6948 0.251143 34.8555L13.8111 48.4155C13.9719 48.5763 14.1898 48.6666 14.4171 48.6667H33.5829C33.8102 48.6666 34.0281 48.5763 34.1889 48.4155L47.7489 34.8555C47.9096 34.6948 48 34.4769 48 34.2495V15.0838C48 14.8565 47.9096 14.6385 47.7489 14.4778Z" fill="#FF5858"/>
<path d="M32.8731 46.9524H15.1269C14.8996 46.9524 14.6816 46.862 14.5209 46.7013L1.96544 34.1458C1.80468 33.9851 1.71434 33.7671 1.71429 33.5398V15.7936C1.71434 15.5662 1.80468 15.3483 1.96544 15.1876L14.5209 2.63212C14.6816 2.47137 14.8996 2.38103 15.1269 2.38098H32.8731C33.1005 2.38103 33.3184 2.47137 33.4791 2.63212L46.0346 15.1876C46.1953 15.3483 46.2857 15.5662 46.2857 15.7936V33.5398C46.2857 33.7671 46.1953 33.9851 46.0346 34.1458L33.4791 46.7013C33.3184 46.862 33.1005 46.9524 32.8731 46.9524ZM15.4817 45.2381H32.5174L44.5714 33.1841V16.1501L32.5174 4.09527H15.4834L3.42858 16.1493V33.185L15.4817 45.2381Z" fill="#FAFAFA"/>
<path d="M9.42857 30.6667C8.51961 30.6656 7.6482 30.304 7.00546 29.6612C6.36272 29.0185 6.00114 28.1471 6 27.2381C6 27.0108 6.09031 26.7928 6.25105 26.632C6.4118 26.4713 6.62982 26.381 6.85714 26.381C7.08447 26.381 7.30249 26.4713 7.46324 26.632C7.62398 26.7928 7.71429 27.0108 7.71429 27.2381C7.71429 27.5772 7.81483 27.9086 8.0032 28.1905C8.19157 28.4724 8.4593 28.6922 8.77254 28.8219C9.08579 28.9517 9.43048 28.9856 9.76301 28.9195C10.0956 28.8533 10.401 28.69 10.6408 28.4503C10.8805 28.2106 11.0438 27.9051 11.1099 27.5726C11.1761 27.24 11.1421 26.8953 11.0124 26.5821C10.8826 26.2688 10.6629 26.0011 10.381 25.8127C10.0991 25.6244 9.76763 25.5238 9.42857 25.5238C8.75047 25.5238 8.08759 25.3227 7.52376 24.946C6.95994 24.5693 6.52049 24.0338 6.26099 23.4073C6.00149 22.7808 5.93359 22.0915 6.06588 21.4264C6.19817 20.7613 6.52471 20.1504 7.00421 19.6709C7.4837 19.1914 8.09461 18.8649 8.75969 18.7326C9.42477 18.6003 10.1141 18.6682 10.7406 18.9277C11.3671 19.1872 11.9026 19.6266 12.2793 20.1904C12.6561 20.7543 12.8571 21.4172 12.8571 22.0953C12.8571 22.3226 12.7668 22.5406 12.6061 22.7014C12.4453 22.8621 12.2273 22.9524 12 22.9524C11.7727 22.9524 11.5547 22.8621 11.3939 22.7014C11.2332 22.5406 11.1429 22.3226 11.1429 22.0953C11.1429 21.7562 11.0423 21.4248 10.854 21.1429C10.6656 20.8609 10.3978 20.6412 10.0846 20.5115C9.77136 20.3817 9.42667 20.3478 9.09413 20.4139C8.76159 20.4801 8.45614 20.6433 8.21639 20.8831C7.97664 21.1228 7.81337 21.4283 7.74723 21.7608C7.68108 22.0934 7.71503 22.438 7.84478 22.7513C7.97453 23.0645 8.19425 23.3323 8.47617 23.5206C8.75808 23.709 9.08952 23.8095 9.42857 23.8095C10.3379 23.8095 11.21 24.1708 11.8529 24.8138C12.4959 25.4567 12.8571 26.3288 12.8571 27.2381C12.8571 28.1474 12.4959 29.0195 11.8529 29.6625C11.21 30.3055 10.3379 30.6667 9.42857 30.6667ZM22.2857 18.6667H15.4286C15.2012 18.6667 14.9832 18.757 14.8225 18.9177C14.6617 19.0785 14.5714 19.2965 14.5714 19.5238C14.5714 19.7512 14.6617 19.9692 14.8225 20.1299C14.9832 20.2907 15.2012 20.381 15.4286 20.381H18V29.8095C18 30.0369 18.0903 30.2549 18.2511 30.4156C18.4118 30.5764 18.6298 30.6667 18.8571 30.6667C19.0845 30.6667 19.3025 30.5764 19.4632 30.4156C19.624 30.2549 19.7143 30.0369 19.7143 29.8095V20.381H22.2857C22.513 20.381 22.7311 20.2907 22.8918 20.1299C23.0526 19.9692 23.1429 19.7512 23.1429 19.5238C23.1429 19.2965 23.0526 19.0785 22.8918 18.9177C22.7311 18.757 22.513 18.6667 22.2857 18.6667ZM28.2857 30.6667C27.3767 30.6658 26.5051 30.3043 25.8624 29.6615C25.2196 29.0187 24.8581 28.1472 24.8571 27.2381V22.0953C24.8571 21.1859 25.2184 20.3139 25.8614 19.6709C26.5043 19.0279 27.3764 18.6667 28.2857 18.6667C29.195 18.6667 30.0671 19.0279 30.7101 19.6709C31.3531 20.3139 31.7143 21.1859 31.7143 22.0953V27.2381C31.7134 28.1472 31.3519 29.0187 30.7091 29.6615C30.0663 30.3043 29.1948 30.6658 28.2857 30.6667ZM28.2857 20.381C27.8311 20.381 27.395 20.5616 27.0735 20.8831C26.752 21.2046 26.5714 21.6406 26.5714 22.0953V27.2381C26.5714 27.6928 26.752 28.1288 27.0735 28.4503C27.395 28.7718 27.8311 28.9524 28.2857 28.9524C28.7404 28.9524 29.1764 28.7718 29.4979 28.4503C29.8194 28.1288 30 27.6928 30 27.2381V22.0953C30 21.6406 29.8194 21.2046 29.4979 20.8831C29.1764 20.5616 28.7404 20.381 28.2857 20.381ZM35.1429 30.6667C34.9155 30.6667 34.6975 30.5764 34.5368 30.4156C34.376 30.2549 34.2857 30.0369 34.2857 29.8095V19.5238C34.2857 19.2965 34.376 19.0785 34.5368 18.9177C34.6975 18.757 34.9155 18.6667 35.1429 18.6667H38.5714C39.4807 18.6667 40.3528 19.0279 40.9958 19.6709C41.6388 20.3139 42 21.1859 42 22.0953C42 23.0046 41.6388 23.8766 40.9958 24.5196C40.3528 25.1626 39.4807 25.5238 38.5714 25.5238H36V29.8095C36 30.0369 35.9097 30.2549 35.749 30.4156C35.5882 30.5764 35.3702 30.6667 35.1429 30.6667ZM36 23.8095H38.5714C39.0261 23.8095 39.4621 23.6289 39.7836 23.3074C40.1051 22.986 40.2857 22.5499 40.2857 22.0953C40.2857 21.6406 40.1051 21.2046 39.7836 20.8831C39.4621 20.5616 39.0261 20.381 38.5714 20.381H36V23.8095Z" fill="#FAFAFA"/>
</g>
<defs>
<clipPath id="clip0_2002_259">
<rect width="48" height="48" fill="white" transform="translate(0 0.666687)"/>
</clipPath>
</defs>
</svg>
