<svg width="22" height="23" viewBox="0 0 22 23" fill="none" xmlns="http://www.w3.org/2000/svg">
<path d="M7.31058 2.33334C8.06844 2.33334 8.76119 2.76169 9.09982 3.43968L11.3333 7.91147L13.7063 3.40198C14.0521 2.74481 14.7336 2.33334 15.4762 2.33334H17.6443C19.1786 2.33334 20.1415 3.98963 19.3824 5.32293L16.5372 10.3199C16.1806 10.9462 16.1886 11.7159 16.558 12.3347L19.5272 17.3081C20.3231 18.6412 19.3626 20.3333 17.81 20.3333H15.7338C15.0129 20.3333 14.3477 19.9453 13.9929 19.3178L11.3333 14.6146L8.7683 19.2946C8.41723 19.9351 7.74489 20.3333 7.01445 20.3333H4.8734C3.31714 20.3333 2.35716 18.6341 3.16034 17.3012L6.1544 12.3321C6.5263 11.7149 6.53741 10.9453 6.18348 10.3176L3.36314 5.31565C2.6114 3.98242 3.57472 2.33334 5.10528 2.33334H7.31058Z" fill="#3B64B7"/>
<path d="M7.31085 1.33334L7.52277 1.34116C8.57524 1.41556 9.51825 2.03934 9.99445 2.99252L11.3558 5.71909L12.8216 2.93588C13.3403 1.95046 14.3623 1.33346 15.4759 1.33334H17.6439C19.9453 1.33334 21.39 3.81777 20.2513 5.81772L17.4066 10.8148C17.2283 11.1278 17.2319 11.5123 17.4163 11.8216L20.386 16.7953C21.5799 18.7949 20.1388 21.3333 17.8099 21.3333H15.7337C14.6523 21.3333 13.6547 20.7512 13.1224 19.8099L11.346 16.6693L9.64484 19.7747C9.11823 20.7356 8.10964 21.3333 7.01398 21.3333H4.87335C2.53908 21.3333 1.0995 18.7849 2.30402 16.7855L5.29816 11.8158C5.48387 11.5073 5.48954 11.1226 5.31281 10.8089L2.49249 5.80698C1.36496 3.80727 2.80924 1.33369 5.1048 1.33334H7.31085Z" stroke="white" stroke-opacity="0.4" stroke-width="2" stroke-linejoin="round"/>
</svg>
